# xmcd
#
# Track frame offsets:
#	150
#	9993
#	19165
#	29250
#	39775
#	49637
#	64619
#	77660
#	87526
#	99954
#	111248
#	122332
#	134591
#	146545
#	156586
#	171519
#	181856
#	196423
#
# Disc length: 2765 seconds
#
# Revision: 0
# Processed by: cddbd v1.4PL0 Copyright (c) Steve Scherf et al.
# Submitted via: audiograbber 1.82.02
#
DISCID=e80acb12
DTITLE=Various Artist - One For The Road Disc 1
DYEAR=1900
DGENRE=Country
TTITLE0=Dave Dudley - Truck Drivin' Son Of A Gun
TTITLE1=Roger Miller - Chug A Lug
TTITLE2=Don Gibson - Lonesome Number One
TTITLE3=George Hamilton Iv - Aberline
TTITLE4=Dave Dudley - Six Days On The Road
TTITLE5=Frankie Laine - Sixteens Tons
TTITLE6=Faron Young - Its For The Morning
TTITLE7=Ned Miller - From A Jack To A King
TTITLE8=Freddy Fender - Wasted Days and Wasted Nights
TTITLE9=Don Gibson - Oh Lonesome Me
TTITLE10=Roger Miller - King Of The Road
TTITLE11=Johnny Paycheck - Take This Job And Shove It
TTITLE12=Johnny Cash - I Walk The Line
TTITLE13=Hank Locklin - Please Help Me I'm Falling
TTITLE14=Jeannie C Riley - Harper Valley Pta
TTITLE15=Leroy Van Dyke - Walk On By
TTITLE16=Loretta Lynn - Coal Miners Daughter
TTITLE17=Tom Jones - Green Green Grass Of Home (Live)
EXTD=
EXTT0=
EXTT1=
EXTT2=
EXTT3=
EXTT4=
EXTT5=
EXTT6=
EXTT7=
EXTT8=
EXTT9=
EXTT10=
EXTT11=
EXTT12=
EXTT13=
EXTT14=
EXTT15=
EXTT16=
EXTT17=
PLAYORDER=
